<svg width="363" height="75" viewBox="0 0 363 75" fill="none" xmlns="http://www.w3.org/2000/svg">
<path d="M0.89 73V2.92H14.522V61H42.842V73H0.89ZM67.6805 74.344C61.9205 74.344 57.3125 72.872 53.8565 69.928C50.4645 66.984 48.7685 62.856 48.7685 57.544C48.7685 51.848 50.8165 47.656 54.9125 44.968C59.0725 42.216 64.6405 40.84 71.6165 40.84H82.2725V40.36C82.2725 34.408 79.2645 31.432 73.2485 31.432C71.6485 31.432 69.7285 31.464 67.4885 31.528C65.2485 31.592 62.9765 31.688 60.6725 31.816C58.4325 31.88 56.4165 31.976 54.6245 32.104V20.776C56.8005 20.584 59.3925 20.424 62.4005 20.296C65.4725 20.168 68.2885 20.104 70.8485 20.104C78.8485 20.104 84.8645 21.736 88.8965 25C92.9925 28.2 95.0405 33.416 95.0405 40.648V73H84.4805V63.016C82.1125 70.568 76.5125 74.344 67.6805 74.344ZM71.4245 64.84C73.2165 64.84 74.9125 64.52 76.5125 63.88C78.1125 63.176 79.4245 62.024 80.4485 60.424C81.5365 58.76 82.1445 56.52 82.2725 53.704V48.808H71.4245C68.3525 48.808 65.9845 49.576 64.3205 51.112C62.7205 52.584 61.9205 54.504 61.9205 56.872C61.9205 59.304 62.7205 61.256 64.3205 62.728C65.9845 64.136 68.3525 64.84 71.4245 64.84ZM131.109 73V2.44H155.301C164.133 2.44 170.949 4.584 175.749 8.872C180.613 13.096 183.045 18.856 183.045 26.152V27.688C183.045 34.984 180.613 40.776 175.749 45.064C170.949 49.352 164.133 51.496 155.301 51.496H144.741V73H131.109ZM156.453 14.248H144.741V39.688H156.453C160.549 39.688 163.685 38.504 165.861 36.136C168.101 33.768 169.221 30.696 169.221 26.92C169.221 23.144 168.101 20.104 165.861 17.8C163.685 15.432 160.549 14.248 156.453 14.248ZM334.681 74.344C328.921 74.344 324.313 72.872 320.857 69.928C317.465 66.984 315.769 62.856 315.769 57.544C315.769 51.848 317.817 47.656 321.913 44.968C326.073 42.216 331.641 40.84 338.617 40.84H349.273V40.36C349.273 34.408 346.265 31.432 340.249 31.432C338.649 31.432 336.729 31.464 334.489 31.528C332.249 31.592 329.977 31.688 327.673 31.816C325.433 31.88 323.417 31.976 321.625 32.104V20.776C323.801 20.584 326.393 20.424 329.401 20.296C332.473 20.168 335.289 20.104 337.849 20.104C345.849 20.104 351.865 21.736 355.897 25C359.993 28.2 362.041 33.416 362.041 40.648V73H351.481V63.016C349.113 70.568 343.513 74.344 334.681 74.344ZM338.425 64.84C340.217 64.84 341.913 64.52 343.513 63.88C345.113 63.176 346.425 62.024 347.449 60.424C348.537 58.76 349.145 56.52 349.273 53.704V48.808H338.425C335.353 48.808 332.985 49.576 331.321 51.112C329.721 52.584 328.921 54.504 328.921 56.872C328.921 59.304 329.721 61.256 331.321 62.728C332.985 64.136 335.353 64.84 338.425 64.84Z" fill="white"/>
<path d="M200.632 14.632C198.008 14.632 196.056 13.96 194.776 12.616C193.56 11.208 192.952 9.448 192.952 7.336C192.952 5.224 193.56 3.496 194.776 2.152C196.056 0.807995 198.008 0.135994 200.632 0.135994C203.192 0.135994 205.08 0.807995 206.296 2.152C207.576 3.496 208.216 5.224 208.216 7.336C208.216 9.448 207.576 11.208 206.296 12.616C205.08 13.96 203.192 14.632 200.632 14.632ZM195.736 73V30.856H188.44V20.872H209.08V73H195.736Z" fill="#FFA200"/>
<path d="M221.099 73V62.44L246.251 32.296L245.387 31.144H221.003V20.872H260.747V31.432L235.595 61.672L236.459 62.728H261.803V73H221.099Z" fill="#CF3031"/>
<path d="M268.818 73V62.44L293.97 32.296L293.106 31.144H268.722V20.872H308.466V31.432L283.314 61.672L284.178 62.728H309.522V73H268.818Z" fill="#5C913B"/>
</svg>
