<svg width="286" height="29" viewBox="0 0 286 29" fill="none" xmlns="http://www.w3.org/2000/svg">
<path d="M11.204 28.684C8.876 28.684 6.908 28.312 5.3 27.568C3.692 26.824 2.468 25.804 1.628 24.508C0.812 23.212 0.404 21.724 0.404 20.044H5.408C5.408 20.764 5.6 21.448 5.984 22.096C6.368 22.744 6.98 23.272 7.82 23.68C8.684 24.088 9.812 24.292 11.204 24.292C13.076 24.292 14.48 23.908 15.416 23.14C16.352 22.372 16.82 21.436 16.82 20.332C16.82 19.42 16.424 18.676 15.632 18.1C14.84 17.524 13.616 17.164 11.96 17.02L9.656 16.84C7.136 16.624 5.12 15.844 3.608 14.5C2.12 13.132 1.376 11.332 1.376 9.1C1.376 7.444 1.76 6.004 2.528 4.78C3.32 3.556 4.436 2.62 5.876 1.972C7.316 1.3 8.996 0.963998 10.916 0.963998C12.884 0.963998 14.588 1.312 16.028 2.008C17.492 2.704 18.62 3.688 19.412 4.96C20.204 6.208 20.6 7.684 20.6 9.388H15.596C15.596 8.332 15.2 7.396 14.408 6.58C13.64 5.764 12.476 5.356 10.916 5.356C9.38 5.356 8.24 5.728 7.496 6.472C6.752 7.216 6.38 8.092 6.38 9.1C6.38 9.916 6.668 10.636 7.244 11.26C7.844 11.86 8.804 12.208 10.124 12.304L12.428 12.52C14.3 12.688 15.932 13.096 17.324 13.744C18.74 14.368 19.844 15.232 20.636 16.336C21.428 17.44 21.824 18.772 21.824 20.332C21.824 21.988 21.38 23.452 20.492 24.724C19.628 25.972 18.404 26.944 16.82 27.64C15.236 28.336 13.364 28.684 11.204 28.684ZM35.4978 28.684C33.1938 28.684 31.2498 28.216 29.6658 27.28C28.0818 26.32 26.8698 25.072 26.0298 23.536C25.2138 22 24.8058 20.368 24.8058 18.64V17.884C24.8058 16.084 25.2258 14.416 26.0658 12.88C26.9298 11.344 28.1538 10.108 29.7378 9.172C31.3458 8.236 33.2658 7.768 35.4978 7.768C37.7058 7.768 39.6018 8.236 41.1858 9.172C42.7938 10.108 44.0178 11.344 44.8578 12.88C45.7218 14.416 46.1538 16.084 46.1538 17.884V18.64C46.1538 20.368 45.7338 22 44.8938 23.536C44.0778 25.072 42.8778 26.32 41.2938 27.28C39.7098 28.216 37.7778 28.684 35.4978 28.684ZM35.4978 24.4C37.3218 24.4 38.7138 23.824 39.6738 22.672C40.6578 21.496 41.1498 20.02 41.1498 18.244C41.1498 16.468 40.6458 14.992 39.6378 13.816C38.6298 12.64 37.2498 12.052 35.4978 12.052C33.7218 12.052 32.3298 12.64 31.3218 13.816C30.3138 14.992 29.8098 16.468 29.8098 18.244C29.8098 20.02 30.2898 21.496 31.2498 22.672C32.2338 23.824 33.6498 24.4 35.4978 24.4ZM62.0194 28.648C60.2434 28.648 58.6954 28.228 57.3754 27.388C56.0794 26.548 55.1194 25.348 54.4954 23.788V28H50.5354V1.72H55.5394V11.62C56.2594 10.372 57.1954 9.436 58.3474 8.812C59.5234 8.164 60.8554 7.84 62.3434 7.84C64.1434 7.84 65.7154 8.284 67.0594 9.172C68.4034 10.036 69.4474 11.224 70.1914 12.736C70.9354 14.224 71.3074 15.904 71.3074 17.776V18.532C71.3074 20.428 70.9234 22.144 70.1554 23.68C69.3874 25.192 68.3074 26.404 66.9154 27.316C65.5474 28.204 63.9154 28.648 62.0194 28.648ZM60.9034 24.436C62.5114 24.436 63.8074 23.86 64.7914 22.708C65.7994 21.532 66.3034 20.02 66.3034 18.172C66.3034 16.324 65.7994 14.848 64.7914 13.744C63.8074 12.616 62.5114 12.052 60.9034 12.052C59.9194 12.052 59.0074 12.28 58.1674 12.736C57.3274 13.168 56.6554 13.804 56.1514 14.644C55.6474 15.46 55.3954 16.456 55.3954 17.632V19.072C55.3954 20.2 55.6594 21.172 56.1874 21.988C56.7154 22.78 57.3994 23.392 58.2394 23.824C59.0794 24.232 59.9674 24.436 60.9034 24.436ZM75.7073 28V8.452H79.6673V14.824C80.1953 10.408 82.5233 8.2 86.6513 8.2H87.3713V12.556H86.0033C84.2993 12.556 82.9913 13.012 82.0793 13.924C81.1673 14.836 80.7113 16.132 80.7113 17.812V28H75.7073ZM99.3264 28.684C97.6464 28.684 96.1704 28.396 94.8984 27.82C93.6504 27.244 92.6064 26.476 91.7664 25.516C90.9504 24.532 90.3264 23.44 89.8944 22.24C89.4864 21.04 89.2824 19.816 89.2824 18.568V17.884C89.2824 16.588 89.4864 15.34 89.8944 14.14C90.3264 12.94 90.9504 11.86 91.7664 10.9C92.6064 9.94 93.6384 9.184 94.8624 8.632C96.0864 8.056 97.5024 7.768 99.1104 7.768C101.222 7.768 102.986 8.236 104.402 9.172C105.818 10.084 106.886 11.296 107.606 12.808C108.35 14.296 108.722 15.904 108.722 17.632V19.432H94.0344C94.2024 20.968 94.7064 22.204 95.5464 23.14C96.4104 24.076 97.6704 24.544 99.3264 24.544C100.526 24.544 101.51 24.304 102.278 23.824C103.07 23.32 103.574 22.708 103.79 21.988H108.398C107.966 24.004 106.946 25.624 105.338 26.848C103.73 28.072 101.726 28.684 99.3264 28.684ZM99.1104 11.908C97.6944 11.908 96.5664 12.304 95.7264 13.096C94.8864 13.888 94.3464 14.98 94.1064 16.372H103.934C103.742 14.98 103.238 13.888 102.422 13.096C101.63 12.304 100.526 11.908 99.1104 11.908ZM126.216 28.504C124.056 28.504 122.328 27.952 121.032 26.848C119.76 25.744 119.124 24.196 119.124 22.204C119.124 20.068 119.892 18.496 121.428 17.488C122.988 16.456 125.076 15.94 127.692 15.94H131.688V15.76C131.688 13.528 130.56 12.412 128.304 12.412C127.704 12.412 126.984 12.424 126.144 12.448C125.304 12.472 124.452 12.508 123.588 12.556C122.748 12.58 121.992 12.616 121.32 12.664V8.416C122.136 8.344 123.108 8.284 124.236 8.236C125.388 8.188 126.444 8.164 127.404 8.164C130.404 8.164 132.66 8.776 134.172 10C135.708 11.2 136.476 13.156 136.476 15.868V28H132.516V24.256C131.628 27.088 129.528 28.504 126.216 28.504ZM127.62 24.94C128.292 24.94 128.928 24.82 129.528 24.58C130.128 24.316 130.62 23.884 131.004 23.284C131.412 22.66 131.64 21.82 131.688 20.764V18.928H127.62C126.468 18.928 125.58 19.216 124.956 19.792C124.356 20.344 124.056 21.064 124.056 21.952C124.056 22.864 124.356 23.596 124.956 24.148C125.58 24.676 126.468 24.94 127.62 24.94ZM150.002 28V1.72H155.114V23.5H165.734V28H150.002ZM175.048 28.504C172.888 28.504 171.16 27.952 169.864 26.848C168.592 25.744 167.956 24.196 167.956 22.204C167.956 20.068 168.724 18.496 170.26 17.488C171.82 16.456 173.908 15.94 176.524 15.94H180.52V15.76C180.52 13.528 179.392 12.412 177.136 12.412C176.536 12.412 175.816 12.424 174.976 12.448C174.136 12.472 173.284 12.508 172.42 12.556C171.58 12.58 170.824 12.616 170.152 12.664V8.416C170.968 8.344 171.94 8.284 173.068 8.236C174.22 8.188 175.276 8.164 176.236 8.164C179.236 8.164 181.492 8.776 183.004 10C184.54 11.2 185.308 13.156 185.308 15.868V28H181.348V24.256C180.46 27.088 178.36 28.504 175.048 28.504ZM176.452 24.94C177.124 24.94 177.76 24.82 178.36 24.58C178.96 24.316 179.452 23.884 179.836 23.284C180.244 22.66 180.472 21.82 180.52 20.764V18.928H176.452C175.3 18.928 174.412 19.216 173.788 19.792C173.188 20.344 172.888 21.064 172.888 21.952C172.888 22.864 173.188 23.596 173.788 24.148C174.412 24.676 175.3 24.94 176.452 24.94ZM198.834 28V1.54H207.906C211.218 1.54 213.774 2.344 215.574 3.952C217.398 5.536 218.31 7.696 218.31 10.432V11.008C218.31 13.744 217.398 15.916 215.574 17.524C213.774 19.132 211.218 19.936 207.906 19.936H203.946V28H198.834ZM208.338 5.968H203.946V15.508H208.338C209.874 15.508 211.05 15.064 211.866 14.176C212.706 13.288 213.126 12.136 213.126 10.72C213.126 9.304 212.706 8.164 211.866 7.3C211.05 6.412 209.874 5.968 208.338 5.968ZM275.173 28.504C273.013 28.504 271.285 27.952 269.989 26.848C268.717 25.744 268.081 24.196 268.081 22.204C268.081 20.068 268.849 18.496 270.385 17.488C271.945 16.456 274.033 15.94 276.649 15.94H280.645V15.76C280.645 13.528 279.517 12.412 277.261 12.412C276.661 12.412 275.941 12.424 275.101 12.448C274.261 12.472 273.409 12.508 272.545 12.556C271.705 12.58 270.949 12.616 270.277 12.664V8.416C271.093 8.344 272.065 8.284 273.193 8.236C274.345 8.188 275.401 8.164 276.361 8.164C279.361 8.164 281.617 8.776 283.129 10C284.665 11.2 285.433 13.156 285.433 15.868V28H281.473V24.256C280.585 27.088 278.485 28.504 275.173 28.504ZM276.577 24.94C277.249 24.94 277.885 24.82 278.485 24.58C279.085 24.316 279.577 23.884 279.961 23.284C280.369 22.66 280.597 21.82 280.645 20.764V18.928H276.577C275.425 18.928 274.537 19.216 273.913 19.792C273.313 20.344 273.013 21.064 273.013 21.952C273.013 22.864 273.313 23.596 273.913 24.148C274.537 24.676 275.425 24.94 276.577 24.94Z" fill="#2E2E2E"/>
<path d="M224.905 6.112C223.921 6.112 223.189 5.86 222.709 5.356C222.253 4.828 222.025 4.168 222.025 3.376C222.025 2.584 222.253 1.936 222.709 1.432C223.189 0.927998 223.921 0.675998 224.905 0.675998C225.865 0.675998 226.573 0.927998 227.029 1.432C227.509 1.936 227.749 2.584 227.749 3.376C227.749 4.168 227.509 4.828 227.029 5.356C226.573 5.86 225.865 6.112 224.905 6.112ZM223.069 28V12.196H220.333V8.452H228.073V28H223.069Z" fill="#FFA200"/>
<path d="M232.58 28V24.04L242.012 12.736L241.688 12.304H232.544V8.452H247.448V12.412L238.016 23.752L238.34 24.148H247.844V28H232.58Z" fill="#CF3031"/>
<path d="M250.475 28V24.04L259.907 12.736L259.583 12.304H250.439V8.452H265.343V12.412L255.911 23.752L256.235 24.148H265.739V28H250.475Z" fill="#5C913B"/>
</svg>
